# xmcd CD database file
#
# Track frame offsets:
#	150
#	19786
#	27102
#	46890
#	68802
#	82204
#	102440
#	121051
#	126938
#	148294
#	167740
#	177546
#	194636
#	206216
#	221243
#	237138
#	266716
#	274704
#
# Disc length: 4014 seconds
#
# Revision: 0
# Processed by: cddbd v1.5.2PL0 Copyright (c) Steve Scherf et al.
# Submitted via: CDex 1.51
#
DISCID=1c0fac12
DTITLE=Bergen Barokk - Telemann G.F. - Harmonischer Gottes-Dienst
DYEAR=2006
DGENRE=Baroque
TTITLE0=I Aria (Vivace) - Lauter Wonne, lauter Freude [TWV 1.1040]
TTITLE1=II Rezitativ - Lauter Wonne, lauter Freude [TWV 1.1040]
TTITLE2=III Aria - Lauter Wonne, lauter Freude [TWV 1.1040]
TTITLE3=I Aria - In gering- und rauhen Schalen [TWV 1.549]
TTITLE4=II Rezitativ - In gering- und rauhen Schalen [TWV 1.549]
TTITLE5=III Aria - In gering- und rauhen Schalen [TWV 1.549]
TTITLE6=I Aria (Spiritoso) - Hemmet den Eifer, verbannet die Rache [TWV 1.941]
TTITLE7=II Rezitativ - Hemmet den Eifer, verbannet die Rache [TWV 1.941]
TTITLE8=III Aria (Dolce) - Hemmet den Eifer, verbannet die Rache [TWV 1.941]
TTITLE9=I Aria - Seele, lerne dich erkennen [TWV 1.1502]
TTITLE10=II Rezitativ - Seele, lerne dich erkennen [TWV 1.1502]
TTITLE11=III Aria (Vivace) - Seele, lerne dich erkennen [TWV 1.1502]
TTITLE12=I Aria (Affettuoso) -  Du bist verflucht, o Schrechensstimme [TWV 1.213]
TTITLE13=II Rezitativ -  Du bist verflucht, o Schrechensstimme [TWV 1.213]
TTITLE14=III Aria (Vivace) -  Du bist verflucht, o Schrechensstimme [TWV 1.213]
TTITLE15=I Aria (Vivace) -  Du bist verflucht, o Schrechensstimme [TWV 1.213]
TTITLE16=II Rezitativ -  Du bist verflucht, o Schrechensstimme [TWV 1.213]
TTITLE17=III Aria (Animoso) -  Du bist verflucht, o Schrechensstimme [TWV 1.213]
EXTD=YEAR: 2006
EXTT0=
EXTT1=
EXTT2=
EXTT3=
EXTT4=
EXTT5=
EXTT6=
EXTT7=
EXTT8=
EXTT9=
EXTT10=
EXTT11=
EXTT12=
EXTT13=
EXTT14=
EXTT15=
EXTT16=
EXTT17=
PLAYORDER=
